<svg width="32" height="32" viewBox="0 0 32 32" fill="none" xmlns="http://www.w3.org/2000/svg">
<path d="M3.07142 24.9979C2.29949 26.3313 3.2616 28 4.80227 28H27.1978C28.7385 28 29.7006 26.3313 28.9287 24.9979L17.7309 5.65634C16.9606 4.32577 15.0395 4.32577 14.2692 5.65634L3.07142 24.9979ZM17.3334 22.6667C17.3334 23.4031 16.7364 24 16 24C15.2637 24 14.6667 23.4031 14.6667 22.6667C14.6667 21.9303 15.2637 21.3334 16 21.3334C16.7364 21.3334 17.3334 21.9303 17.3334 22.6667ZM17.3334 17.3334C17.3334 18.0697 16.7364 18.6667 16 18.6667C15.2637 18.6667 14.6667 18.0697 14.6667 17.3334V14.6667C14.6667 13.9303 15.2637 13.3334 16 13.3334C16.7364 13.3334 17.3334 13.9303 17.3334 14.6667V17.3334Z" fill="black"/>
</svg>
